<svg xmlns="http://www.w3.org/2000/svg" xmlns:xlink="http://www.w3.org/1999/xlink" width="500" zoomAndPan="magnify" viewBox="0 0 375 374.999991" height="500" preserveAspectRatio="xMidYMid meet" version="1.0"><defs><g/><clipPath id="a3008e85b2"><rect x="0" width="246" y="0" height="330"/></clipPath><clipPath id="61222d6d11"><rect x="0" width="245" y="0" height="330"/></clipPath></defs><g transform="matrix(1, 0, 0, 1, 12, 0)"><g clip-path="url(#a3008e85b2)"><g fill="#000000" fill-opacity="0.4"><g transform="translate(13.313462, 284.866435)"><g><path d="M 231.078125 -220.078125 L 231.078125 -176.0625 L 55.015625 -176.0625 L 55.015625 -132.046875 L 187.0625 -132.046875 C 195.132812 -132.046875 202.515625 -130.070312 209.203125 -126.125 C 215.898438 -122.1875 221.21875 -116.867188 225.15625 -110.171875 C 229.101562 -103.484375 231.078125 -96.101562 231.078125 -88.03125 L 231.078125 -44.015625 C 231.078125 -35.941406 229.101562 -28.554688 225.15625 -21.859375 C 221.21875 -15.171875 215.898438 -9.851562 209.203125 -5.90625 C 202.515625 -1.96875 195.132812 0 187.0625 0 L 11 0 L 11 -44.015625 L 187.0625 -44.015625 L 187.0625 -88.03125 L 55.015625 -88.03125 C 46.953125 -88.03125 39.570312 -90 32.875 -93.9375 C 26.175781 -97.882812 20.851562 -103.203125 16.90625 -109.890625 C 12.96875 -116.585938 11 -123.972656 11 -132.046875 L 11 -176.0625 C 11 -184.132812 12.96875 -191.515625 16.90625 -198.203125 C 20.851562 -204.898438 26.175781 -210.21875 32.875 -214.15625 C 39.570312 -218.101562 46.953125 -220.078125 55.015625 -220.078125 Z M 231.078125 -220.078125 "/></g></g></g><g fill="#000000" fill-opacity="1"><g transform="translate(1.155731, 272.708701)"><g><path d="M 231.078125 -220.078125 L 231.078125 -176.0625 L 55.015625 -176.0625 L 55.015625 -132.046875 L 187.0625 -132.046875 C 195.132812 -132.046875 202.515625 -130.070312 209.203125 -126.125 C 215.898438 -122.1875 221.21875 -116.867188 225.15625 -110.171875 C 229.101562 -103.484375 231.078125 -96.101562 231.078125 -88.03125 L 231.078125 -44.015625 C 231.078125 -35.941406 229.101562 -28.554688 225.15625 -21.859375 C 221.21875 -15.171875 215.898438 -9.851562 209.203125 -5.90625 C 202.515625 -1.96875 195.132812 0 187.0625 0 L 11 0 L 11 -44.015625 L 187.0625 -44.015625 L 187.0625 -88.03125 L 55.015625 -88.03125 C 46.953125 -88.03125 39.570312 -90 32.875 -93.9375 C 26.175781 -97.882812 20.851562 -103.203125 16.90625 -109.890625 C 12.96875 -116.585938 11 -123.972656 11 -132.046875 L 11 -176.0625 C 11 -184.132812 12.96875 -191.515625 16.90625 -198.203125 C 20.851562 -204.898438 26.175781 -210.21875 32.875 -214.15625 C 39.570312 -218.101562 46.953125 -220.078125 55.015625 -220.078125 Z M 231.078125 -220.078125 "/></g></g></g></g></g><g transform="matrix(1, 0, 0, 1, 119, 42)"><g clip-path="url(#61222d6d11)"><g fill="#737373" fill-opacity="0.4"><g transform="translate(12.913204, 284.520663)"><g><path d="M 231.078125 -220.078125 L 231.078125 -189.265625 C 231.078125 -183.023438 228.875 -177.707031 224.46875 -173.3125 L 161.203125 -110.03125 L 224.46875 -46.765625 C 228.875 -42.359375 231.078125 -37.039062 231.078125 -30.8125 L 231.078125 0 L 187.0625 0 L 187.0625 -22 L 121.046875 -88.03125 L 55.015625 -22 L 55.015625 0 L 11 0 L 11 -30.8125 C 11 -37.039062 13.203125 -42.359375 17.609375 -46.765625 L 80.875 -110.03125 L 17.609375 -173.3125 C 13.203125 -177.707031 11 -183.023438 11 -189.265625 L 11 -220.078125 L 55.015625 -220.078125 L 55.015625 -198.0625 L 121.046875 -132.046875 L 187.0625 -198.0625 L 187.0625 -220.078125 Z M 231.078125 -220.078125 "/></g></g></g><g fill="#737373" fill-opacity="1"><g transform="translate(0.75547, 272.362929)"><g><path d="M 231.078125 -220.078125 L 231.078125 -189.265625 C 231.078125 -183.023438 228.875 -177.707031 224.46875 -173.3125 L 161.203125 -110.03125 L 224.46875 -46.765625 C 228.875 -42.359375 231.078125 -37.039062 231.078125 -30.8125 L 231.078125 0 L 187.0625 0 L 187.0625 -22 L 121.046875 -88.03125 L 55.015625 -22 L 55.015625 0 L 11 0 L 11 -30.8125 C 11 -37.039062 13.203125 -42.359375 17.609375 -46.765625 L 80.875 -110.03125 L 17.609375 -173.3125 C 13.203125 -177.707031 11 -183.023438 11 -189.265625 L 11 -220.078125 L 55.015625 -220.078125 L 55.015625 -198.0625 L 121.046875 -132.046875 L 187.0625 -198.0625 L 187.0625 -220.078125 Z M 231.078125 -220.078125 "/></g></g></g></g></g></svg>